<svg width="67" height="66" viewBox="0 0 67 66" fill="none" xmlns="http://www.w3.org/2000/svg">
<path d="M33.5 2C16.3787 2 2.5 15.8787 2.5 33C2.5 50.1213 16.3787 64 33.5 64C50.6213 64 64.5 50.1213 64.5 33C64.5 15.8787 50.6213 2 33.5 2Z" stroke="#CD1A29" stroke-width="4" stroke-linecap="round" stroke-linejoin="round"/>
<path d="M21.1 61.4208V39.2L33.5 17.5L45.9 39.2V61.4208" stroke="#CD1A29" stroke-width="4" stroke-linecap="round" stroke-linejoin="round"/>
<path d="M21.1 39.2C21.1 39.2 24.5937 42.3 27.3 42.3C30.0063 42.3 33.5 39.2 33.5 39.2C33.5 39.2 36.9937 42.3 39.7 42.3C42.4063 42.3 45.9 39.2 45.9 39.2" stroke="#CD1A29" stroke-width="4" stroke-linecap="round" stroke-linejoin="round"/>
</svg>
