<svg width="63" height="62" viewBox="0 0 63 62" fill="none" xmlns="http://www.w3.org/2000/svg">
<g clip-path="url(#clip0_2_89)">
<path d="M9.01466 53.2218L25.455 36.7814M46.1578 29.4706L41.2366 44.2344C41.158 44.471 41.0236 44.6852 40.8446 44.8588C40.6656 45.0324 40.4474 45.1603 40.2084 45.2315L10.0402 54.1983C9.76845 54.279 9.47972 54.2836 9.20549 54.2117C8.93125 54.1397 8.68201 53.9939 8.48488 53.7901C8.28776 53.5863 8.1503 53.3324 8.08748 53.0559C8.02466 52.7794 8.03887 52.491 8.12857 52.222L17.9246 22.8392C17.9948 22.6282 18.1096 22.4348 18.2611 22.2721C18.4127 22.1094 18.5974 21.9813 18.8029 21.8963L32.7193 16.1664C33.0022 16.0496 33.3134 16.0191 33.6136 16.0789C33.9138 16.1387 34.1896 16.286 34.4062 16.5023L45.7832 27.8819C45.9873 28.0856 46.1304 28.3423 46.1966 28.6229C46.2628 28.9036 46.2493 29.1972 46.1578 29.4706V29.4706Z" stroke="#CD1A29" stroke-width="4" stroke-linecap="round" stroke-linejoin="round"/>
<path d="M46.4627 28.5613L53.7684 21.2531C54.737 20.2842 55.2811 18.9702 55.2811 17.6002C55.2811 16.2302 54.737 14.9163 53.7684 13.9474L48.2917 8.46556C47.8119 7.98557 47.2422 7.60481 46.6153 7.34503C45.9883 7.08525 45.3163 6.95154 44.6376 6.95154C43.9589 6.95154 43.2869 7.08525 42.6599 7.34503C42.0329 7.60481 41.4633 7.98557 40.9835 8.46556L33.6778 15.7738M30.9343 31.2996C30.5743 30.9399 30.1471 30.6545 29.6768 30.4599C29.2066 30.2652 28.7027 30.1651 28.1937 30.1652C27.6848 30.1654 27.1809 30.2657 26.7108 30.4606C26.2407 30.6554 25.8135 30.941 25.4537 31.3009C25.094 31.6609 24.8086 32.0882 24.614 32.5584C24.4193 33.0286 24.3192 33.5326 24.3193 34.0415C24.3195 34.5504 24.4198 35.0543 24.6147 35.5244C24.8095 35.9946 25.0951 36.4217 25.455 36.7815C26.182 37.5081 27.1678 37.9161 28.1956 37.9159C29.2234 37.9156 30.209 37.5071 30.9356 36.7802C31.6622 36.0533 32.0702 35.0674 32.07 34.0396C32.0697 33.0118 31.6612 32.0262 30.9343 31.2996Z" stroke="#CD1A29" stroke-width="4" stroke-linecap="round" stroke-linejoin="round"/>
</g>
<defs>
<clipPath id="clip0_2_89">
<rect width="62" height="62" fill="white" transform="translate(0.5)"/>
</clipPath>
</defs>
</svg>
