<svg width="26" height="26" viewBox="0 0 26 26" fill="none" xmlns="http://www.w3.org/2000/svg">
<path d="M12.8906 6.70312C11.6669 6.70312 10.4706 7.06602 9.45303 7.74591C8.4355 8.4258 7.64244 9.39215 7.17412 10.5228C6.7058 11.6534 6.58327 12.8975 6.82202 14.0977C7.06076 15.298 7.65006 16.4005 8.5154 17.2658C9.38074 18.1312 10.4832 18.7205 11.6835 18.9592C12.8838 19.198 14.1279 19.0754 15.2585 18.6071C16.3891 18.1388 17.3555 17.3457 18.0353 16.3282C18.7152 15.3107 19.0781 14.1144 19.0781 12.8906C19.0781 11.2496 18.4262 9.67578 17.2658 8.5154C16.1055 7.35502 14.5317 6.70312 12.8906 6.70312ZM12.8906 17.0156C12.0748 17.0156 11.2773 16.7737 10.5989 16.3204C9.92055 15.8672 9.39183 15.2229 9.07962 14.4692C8.76741 13.7154 8.68572 12.886 8.84488 12.0859C9.00405 11.2857 9.39692 10.5507 9.97381 9.97381C10.5507 9.39692 11.2857 9.00405 12.0859 8.84488C12.886 8.68572 13.7154 8.76741 14.4692 9.07962C15.2229 9.39183 15.8672 9.92055 16.3204 10.5989C16.7737 11.2773 17.0156 12.0748 17.0156 12.8906C17.0122 13.9836 16.5765 15.0308 15.8037 15.8037C15.0308 16.5765 13.9836 17.0122 12.8906 17.0156ZM18.5625 0H7.21875C5.30422 0 3.4681 0.760545 2.11432 2.11432C0.760545 3.4681 0 5.30422 0 7.21875V18.5625C0 20.477 0.760545 22.3131 2.11432 23.6669C3.4681 25.0207 5.30422 25.7812 7.21875 25.7812H18.5625C20.477 25.7812 22.3131 25.0207 23.6669 23.6669C25.0207 22.3131 25.7812 20.477 25.7812 18.5625V7.21875C25.7812 5.30422 25.0207 3.4681 23.6669 2.11432C22.3131 0.760545 20.477 0 18.5625 0ZM23.7188 18.5625C23.7188 19.2396 23.5854 19.9101 23.3263 20.5357C23.0671 21.1613 22.6873 21.7297 22.2085 22.2085C21.7297 22.6873 21.1613 23.0671 20.5357 23.3263C19.9101 23.5854 19.2396 23.7188 18.5625 23.7188H7.21875C6.54162 23.7188 5.87112 23.5854 5.24554 23.3263C4.61995 23.0671 4.05153 22.6873 3.57273 22.2085C3.09393 21.7297 2.71412 21.1613 2.455 20.5357C2.19587 19.9101 2.0625 19.2396 2.0625 18.5625V7.21875C2.0625 5.85123 2.60575 4.53972 3.57273 3.57273C4.53972 2.60575 5.85123 2.0625 7.21875 2.0625H18.5625C19.2396 2.0625 19.9101 2.19587 20.5357 2.455C21.1613 2.71412 21.7297 3.09393 22.2085 3.57273C22.6873 4.05153 23.0671 4.61995 23.3263 5.24554C23.5854 5.87112 23.7188 6.54162 23.7188 7.21875V18.5625ZM21.1406 6.1875C21.1406 6.49344 21.0499 6.79251 20.8799 7.0469C20.71 7.30128 20.4684 7.49955 20.1857 7.61663C19.9031 7.73371 19.592 7.76434 19.292 7.70465C18.9919 7.64497 18.7163 7.49764 18.4999 7.28131C18.2836 7.06497 18.1363 6.78935 18.0766 6.48928C18.0169 6.18922 18.0475 5.87819 18.1646 5.59554C18.2817 5.31288 18.48 5.07129 18.7344 4.90132C18.9887 4.73135 19.2878 4.64062 19.5938 4.64062C20.004 4.64062 20.3975 4.8036 20.6876 5.09369C20.9776 5.38379 21.1406 5.77724 21.1406 6.1875Z" fill="#CD1A29"/>
</svg>
