<svg width="63" height="62" viewBox="0 0 63 62" fill="none" xmlns="http://www.w3.org/2000/svg">
<path d="M27.0714 44.166C25.5362 43.9956 24.0261 43.6463 22.572 43.1252C22.6163 42.0801 22.6429 40.9906 22.6429 39.8569V38.3645C24.0157 39.0199 25.5081 39.4761 27.0714 39.7019V28.7854C27.0714 27.0236 27.7713 25.3339 29.0171 24.0881C30.2629 22.8423 31.9525 22.1424 33.7143 22.1424H44.6307C44.2775 19.6885 43.3409 17.3551 41.8994 15.338C40.4578 13.3209 38.5535 11.679 36.3462 10.5502C34.1388 9.42138 31.6929 8.8385 29.2138 8.8505C26.7346 8.8625 24.2944 9.46903 22.0981 10.6192C21.7478 9.17073 21.1709 7.7867 20.3887 6.51829C23.2596 5.0853 26.4341 4.36672 29.6422 4.42365C32.8504 4.48057 35.9974 5.31131 38.8157 6.84524C41.6339 8.37917 44.0401 10.5709 45.8297 13.2342C47.6193 15.8975 48.7394 18.9535 49.0947 22.1424H55.8571C57.6189 22.1424 59.3086 22.8423 60.5544 24.0881C61.8001 25.3339 62.5 27.0236 62.5 28.7854V50.9285C62.5 52.6903 61.8001 54.3799 60.5544 55.6257C59.3086 56.8715 57.6189 57.5714 55.8571 57.5714H33.7143C31.9525 57.5714 30.2629 56.8715 29.0171 55.6257C27.7713 54.3799 27.0714 52.6903 27.0714 50.9285V44.166ZM49.0947 26.5711C48.5915 31.0643 46.5761 35.2531 43.379 38.4502C40.182 41.6473 35.9932 43.6628 31.5 44.166V50.9285C31.5 51.5157 31.7333 52.0789 32.1485 52.4942C32.5638 52.9095 33.127 53.1428 33.7143 53.1428H55.8571C56.4444 53.1428 57.0076 52.9095 57.4229 52.4942C57.8381 52.0789 58.0714 51.5157 58.0714 50.9285V28.7854C58.0714 28.1981 57.8381 27.6349 57.4229 27.2196C57.0076 26.8044 56.4444 26.5711 55.8571 26.5711H49.0947ZM44.6307 26.5711H33.7143C33.127 26.5711 32.5638 26.8044 32.1485 27.2196C31.7333 27.6349 31.5 28.1981 31.5 28.7854V39.7019C34.8125 39.2231 37.8812 37.6856 40.2478 35.3189C42.6144 32.9523 44.1519 29.8836 44.6307 26.5711ZM17.3064 29.0555C16.8414 27.3461 16.0886 25.6322 14.7954 24.3169C16.8857 22.3373 18.2143 19.1841 18.2143 15.4995C18.2143 12.4128 17.5899 10.2915 16.4606 8.59531C15.9595 7.86579 15.3804 7.1931 14.7334 6.58914C14.4855 6.34977 14.2345 6.11356 13.9806 5.88057C13.7104 5.62813 13.4624 5.39785 13.1391 5.07456C12.4749 4.41026 12.3996 3.87883 12.3996 3.59983C12.4003 3.44475 12.4257 3.29077 12.4749 3.14368C12.6773 2.7058 12.7313 2.21378 12.6285 1.74244C12.5257 1.2711 12.2717 0.846224 11.9053 0.532432C11.5389 0.21864 11.08 0.0330994 10.5985 0.00402619C10.1169 -0.025047 9.63908 0.103938 9.23757 0.371366L9.22871 0.375795L9.21543 0.384652L9.17557 0.411224L9.04271 0.499796C8.37843 0.973618 7.73842 1.4806 7.12514 2.01881C6.018 2.99754 4.57429 4.44569 3.55129 6.17285C2.65826 7.60475 1.94155 9.13932 1.41671 10.7432C0.885286 12.3331 0.5 14.0558 0.5 15.4995C0.5 19.1841 1.82857 22.3329 3.91886 24.3213C2.62571 25.6322 1.87286 27.3461 1.40786 29.0599C0.5 32.3903 0.5 36.5089 0.5 39.6931V39.8569C0.5 48.971 2.205 54.3828 4.13586 57.6024C5.10571 59.2144 6.11543 60.2551 6.96129 60.9106C7.41199 61.2621 7.90251 61.5594 8.42271 61.7963C8.72355 61.9061 9.03789 61.9746 9.35714 62C9.72914 62 10.2916 61.7963 10.2916 61.7963C10.8118 61.5594 11.3023 61.2621 11.753 60.9106C12.5944 60.2551 13.613 59.2144 14.5784 57.6024C16.5093 54.3872 18.2143 48.971 18.2143 39.8569V39.6975C18.2143 36.5089 18.2143 32.3947 17.3064 29.0555ZM7.08529 27.4169C7.58571 26.9121 8.25443 26.5711 9.35714 26.5711C10.4643 26.5711 11.1286 26.9165 11.629 27.4125C12.187 27.9749 12.6697 28.8872 13.0329 30.2202C13.768 32.9261 13.7857 36.4779 13.7857 39.8569C13.7857 48.4573 12.1693 53.0099 10.7787 55.3261C10.2473 56.2118 9.74686 56.7831 9.35714 57.1418C8.80032 56.6064 8.32175 55.9951 7.93557 55.3261C6.545 53.0055 4.92857 48.4573 4.92857 39.8569C4.92857 36.4779 4.94629 32.9261 5.68143 30.2202C6.04457 28.8917 6.52729 27.9749 7.08529 27.4125V27.4169ZM9.35714 22.1424C7.65214 22.1424 4.92857 20.247 4.92857 15.4995C4.92857 14.7334 5.15886 13.5199 5.61943 12.1471C6.03914 10.851 6.61778 9.61185 7.34214 8.45802C7.72743 7.80701 8.22786 7.17372 8.76814 6.59357C9.07371 7.13386 9.47671 7.67858 10.0081 8.21002C10.3314 8.53331 10.7521 8.92303 11.1109 9.2596L11.66 9.77332C12.125 10.225 12.4837 10.6192 12.7716 11.0576C13.303 11.8503 13.7857 13.0505 13.7857 15.4995C13.7857 20.247 11.0621 22.1424 9.35714 22.1424Z" fill="white"/>
</svg>
