<svg width="31" height="25" viewBox="0 0 31 25" fill="none" xmlns="http://www.w3.org/2000/svg">
<path d="M30.7812 2.94118C29.677 3.45588 28.4868 3.79412 27.2535 3.95588C28.5155 3.17647 29.4906 1.94118 29.9495 0.455882C28.7593 1.19118 27.44 1.70588 26.0489 2C24.916 0.735294 23.3243 0 21.5174 0C18.1474 0 15.3941 2.82353 15.3941 6.30882C15.3941 6.80882 15.4514 7.29412 15.5518 7.75C10.4466 7.48529 5.90075 4.97059 2.87494 1.16176C2.34435 2.08824 2.0432 3.17647 2.0432 4.32353C2.0432 6.51471 3.11873 8.45588 4.78221 9.55882C3.76404 9.55882 2.81758 9.26471 1.98584 8.82353V8.86765C1.98584 11.9265 4.10821 14.4853 6.91892 15.0588C6.01652 15.3121 5.06915 15.3473 4.15123 15.1618C4.54072 16.4154 5.30353 17.5124 6.33242 18.2984C7.36131 19.0845 8.60455 19.5201 9.88737 19.5441C7.71284 21.3095 5.01738 22.2637 2.24397 22.25C1.75639 22.25 1.26882 22.2206 0.78125 22.1618C3.50592 23.9559 6.74683 25 10.2172 25C21.5174 25 27.7268 15.3824 27.7268 7.04412C27.7268 6.76471 27.7268 6.5 27.7124 6.22059C28.917 5.33823 29.9495 4.22059 30.7812 2.94118Z" fill="#CD1A29"/>
</svg>
