<svg width="26" height="25" viewBox="0 0 26 25" fill="none" xmlns="http://www.w3.org/2000/svg">
<path d="M13.2812 0C6.38125 0 0.78125 5.6 0.78125 12.5C0.78125 19.4 6.38125 25 13.2812 25C20.1812 25 25.7812 19.4 25.7812 12.5C25.7812 5.6 20.1812 0 13.2812 0ZM19.0812 8.5C18.8937 10.475 18.0812 15.275 17.6687 17.4875C17.4937 18.425 17.1437 18.7375 16.8187 18.775C16.0937 18.8375 15.5437 18.3 14.8437 17.8375C13.7437 17.1125 13.1187 16.6625 12.0563 15.9625C10.8188 15.15 11.6187 14.7 12.3312 13.975C12.5187 13.7875 15.7187 10.875 15.7812 10.6125C15.7899 10.5727 15.7888 10.5315 15.7779 10.4923C15.767 10.453 15.7467 10.4171 15.7187 10.3875C15.6437 10.325 15.5437 10.35 15.4562 10.3625C15.3437 10.3875 13.5938 11.55 10.1812 13.85C9.68125 14.1875 9.23125 14.3625 8.83125 14.35C8.38125 14.3375 7.53125 14.1 6.89375 13.8875C6.10625 13.6375 5.49375 13.5 5.54375 13.0625C5.56875 12.8375 5.88125 12.6125 6.46875 12.375C10.1187 10.7875 12.5437 9.7375 13.7562 9.2375C17.2312 7.7875 17.9438 7.5375 18.4188 7.5375C18.5187 7.5375 18.7562 7.5625 18.9062 7.6875C19.0312 7.7875 19.0687 7.925 19.0812 8.025C19.0687 8.1 19.0937 8.325 19.0812 8.5Z" fill="#CD1A29"/>
</svg>
